<svg width="22" height="17" viewBox="0 0 22 17" fill="none" xmlns="http://www.w3.org/2000/svg">
<path fill-rule="evenodd" clip-rule="evenodd" d="M0 1.86713C0 1.4697 0.136928 1.13342 0.410788 0.858272C0.684649 0.583127 1.01936 0.445557 1.41494 0.445557C1.81051 0.445557 2.14523 0.583127 2.41909 0.858272C2.69295 1.13342 2.82988 1.4697 2.82988 1.86713V5.94842C2.82988 7.07957 3.04287 8.14192 3.46888 9.1355C3.89488 10.1291 4.48063 11.0004 5.22614 11.7494C5.97165 12.4984 6.83886 13.0869 7.8278 13.5149C8.81674 13.9429 9.87413 14.1569 11 14.1569C12.1259 14.1569 13.1833 13.9429 14.1722 13.5149C15.1611 13.0869 16.0284 12.4984 16.7739 11.7494C17.5194 11.0004 18.1051 10.1291 18.5311 9.1355C18.9571 8.14192 19.1701 7.07957 19.1701 5.94842V1.86713C19.1701 1.4697 19.3071 1.13342 19.5809 0.858272C19.8548 0.583127 20.1895 0.445557 20.5851 0.445557C20.9806 0.445557 21.3154 0.583127 21.5892 0.858272C21.8631 1.13342 22 1.4697 22 1.86713V5.94842C22 7.477 21.7109 8.91385 21.1328 10.259C20.5546 11.6042 19.7711 12.7735 18.7822 13.7671C17.7932 14.7607 16.6293 15.5479 15.2905 16.1287C13.9516 16.7096 12.5214 17 11 17C9.47855 17 8.04842 16.7096 6.70954 16.1287C5.37067 15.5479 4.20678 14.7607 3.21784 13.7671C2.2289 12.7735 1.44537 11.6042 0.86722 10.259C0.28907 8.91385 0 7.477 0 5.94842V1.86713Z" fill="white"/>
</svg>
